# xmcd
#
# Track frame offsets:
#	150
#	14518
#	26977
#	37963
#	49558
#	62954
#	79589
#	91979
#	106852
#	118952
#	131376
#
# Disc length: 1939 seconds
# Revision: 0
# Processed by: cddbd v1.5.2PL0 Copyright (c) Steve Scherf et al.
# Submitted via: dBpowerAMP V12.0
#
DISCID=8b07910b
DTITLE=Levi Mullen - The Biggest One In Town
DYEAR=2013
DGENRE=Country
TTITLE0=That's What I Get For Lying
TTITLE1=Emerald Eyes
TTITLE2=My Old Flame
TTITLE3=The Other Side Of Mexico
TTITLE4=I'm The Best There Ever Was
TTITLE5=I Woke Up Dreaming
TTITLE6=Tall Dark And Lonesome
TTITLE7=Nothing In My Pocket
TTITLE8=I'm Comin' Down With Somethin'
TTITLE9=I Saw A Man Dying Today
TTITLE10=I've Got The Biggest One In Town
EXTD=
EXTT0=
EXTT1=
EXTT2=
EXTT3=
EXTT4=
EXTT5=
EXTT6=
EXTT7=
EXTT8=
EXTT9=
EXTT10=
PLAYORDER=
